<svg width="61" height="49" viewBox="0 0 61 49" fill="none" xmlns="http://www.w3.org/2000/svg">
<path d="M9.125 28.7209H0V31.7626H9.125V28.7209Z" fill="#2A2A2A"/>
<path d="M9.125 16.5543H0V19.5959H9.125V16.5543Z" fill="#2A2A2A"/>
<path d="M9.125 4.38763H0V7.4293H9.125V4.38763Z" fill="#2A2A2A"/>
<path d="M60.8333 24.1584L54.75 11.9918H48.6667V6.08333C48.6667 2.7375 45.9292 0 42.5833 0H18.25C14.9042 0 12.1667 2.7375 12.1667 6.08333V36.3251C12.1667 39.6709 14.9042 42.4084 18.25 42.4084H21.2917C21.2917 45.768 24.0155 48.4918 27.375 48.4918C30.7345 48.4918 33.4583 45.768 33.4583 42.4084H42.5833H44.1042C44.1042 45.768 46.828 48.4918 50.1875 48.4918C53.547 48.4918 56.2708 45.768 56.2708 42.4084H60.8333V24.1584ZM53.2292 42.4084C53.2292 44.0859 51.865 45.4501 50.1875 45.4501C48.51 45.4501 47.1458 44.0859 47.1458 42.4084C47.1458 40.731 48.51 39.3668 50.1875 39.3668C51.865 39.3668 53.2292 40.731 53.2292 42.4084ZM30.4167 42.4084C30.4167 44.0859 29.0525 45.4501 27.375 45.4501C25.6975 45.4501 24.3333 44.0859 24.3333 42.4084C24.3333 40.731 25.6975 39.3668 27.375 39.3668C29.0525 39.3668 30.4167 40.731 30.4167 42.4084ZM27.375 36.3251C25.1287 36.3251 23.1897 37.5555 22.1357 39.3668H18.25C16.5725 39.3668 15.2083 38.0026 15.2083 36.3251V6.08333C15.2083 4.40585 16.5725 3.04167 18.25 3.04167H42.5833C44.2608 3.04167 45.625 4.40585 45.625 6.08333V15.0334V36.3251C45.625 38.0026 44.2608 39.3668 42.5833 39.3668H32.6143C31.5603 37.5555 29.6213 36.3251 27.375 36.3251ZM57.7917 39.3668H55.4268C54.3728 37.5555 52.4338 36.3251 50.1875 36.3251C49.6507 36.3251 49.1396 36.4164 48.6439 36.5471C48.6469 36.4711 48.6667 36.4011 48.6667 36.3251V15.0334H52.8703L57.7917 24.8763V39.3668Z" fill="#2A2A2A"/>
</svg>
