<svg width="61" height="59" viewBox="0 0 61 59" fill="none" xmlns="http://www.w3.org/2000/svg">
<path d="M39.8154 18.1081L30.4167 -1.91669L21.0179 18.1081L0 21.3201L15.2083 36.9071L11.6176 58.9166L30.4167 48.5248L49.2157 58.9166L45.625 36.9071L60.8333 21.3201L39.8154 18.1081ZM42.6229 37.3969L45.2052 53.2242L31.8888 45.8633L30.4167 45.0497L28.9445 45.8633L15.6281 53.2242L18.2105 37.3969L18.4568 35.8821L17.3846 34.7841L6.31146 23.4326L21.4772 21.1148L23.0817 20.87L23.7706 19.4008L30.4167 5.24187L37.0627 19.4008L37.7516 20.87L39.3561 21.1148L54.5219 23.4326L43.4472 34.7825L42.375 35.8806L42.6229 37.3969Z" fill="#2A2A2A"/>
</svg>
